<?xml version="1.0" encoding="utf-8"?>
<!-- Generator: Adobe Illustrator 17.0.0, SVG Export Plug-In . SVG Version: 6.00 Build 0)  -->
<!DOCTYPE svg PUBLIC "-//W3C//DTD SVG 1.1//EN" "http://www.w3.org/Graphics/SVG/1.1/DTD/svg11.dtd">
<svg version="1.1" id="Layer_1" xmlns="http://www.w3.org/2000/svg" xmlns:xlink="http://www.w3.org/1999/xlink" x="0px" y="0px"
	 width="155.862px" height="171.724px" viewBox="0 0 155.862 171.724" enable-background="new 0 0 155.862 171.724"
	 xml:space="preserve">
<g>
	<g id="XMLID_1_">
		<g>
			<path fill="#FFFFFF" d="M153.504,36.177c0.48,1.03,0.55,1.63-0.32,2.47c-2.92,2.84-5.75,5.78-8.65,8.71
				c-8.84-8.83-17.49-17.48-26.28-26.27c3.02-3.03,6.09-6.12,9.21-9.16c0.26-0.25,1.06-0.29,1.39-0.08
				c3.92,2.45,8.1,4.61,11.63,7.54C146.004,23.977,150.454,29.567,153.504,36.177z"/>
			<path fill="#FFFFFF" d="M13.404,156.487c6.27-1.66,12.33-3.27,18.14-4.8c-5.97-5.96-11.76-11.76-17.58-17.57
				c-1.53,5.76-3.14,11.87-4.8,18.12C11.764,152.487,13.284,153.757,13.404,156.487z M138.684,52.997c-0.28,0.31-0.7,0.8-1.15,1.25
				c-33.68,33.68-67.36,67.37-101.07,101.02c-0.81,0.81-1.94,1.51-3.05,1.81c-9.63,2.59-19.3,5.08-28.96,7.59
				c-2.1,0.54-4-1.28-3.45-3.41c2.23-8.68,4.63-17.31,6.72-26.03c0.85-3.55,2.56-6.28,5.14-8.85c32.71-32.58,65.34-65.25,97.97-97.9
				c0.56-0.56,1-1.24,1.49-1.85C121.284,35.597,129.904,44.217,138.684,52.997z"/>
		</g>
		<g>
		</g>
	</g>
</g>
</svg>
