<?xml version="1.0" encoding="utf-8"?>
<!-- Generator: Adobe Illustrator 17.0.0, SVG Export Plug-In . SVG Version: 6.00 Build 0)  -->
<!DOCTYPE svg PUBLIC "-//W3C//DTD SVG 1.1//EN" "http://www.w3.org/Graphics/SVG/1.1/DTD/svg11.dtd">
<svg version="1.1" id="Layer_1" xmlns="http://www.w3.org/2000/svg" xmlns:xlink="http://www.w3.org/1999/xlink" x="0px" y="0px"
	 width="155.862px" height="171.724px" viewBox="0 0 155.862 171.724" enable-background="new 0 0 155.862 171.724"
	 xml:space="preserve">
<g>
	<path fill="#FFFFFF" d="M151.34,46.527c0,3.118,0,6.235,0,9.353c-3.352,16.155-11.668,29.717-23.058,41.192
		c-16.449,16.572-33.528,32.519-50.339,48.734c-1.663-1.104-2.68-1.583-3.451-2.321c-17.19-16.457-35.07-32.278-51.21-49.71
		C15.523,85.396,9.279,74.594,5.468,63.79c-8.387-23.781,5.374-47.445,29.619-52.746c16.285-3.561,30.204,2.032,41.9,13.783
		c1.792-1.578,3.395-3.075,5.086-4.464c15.94-13.088,37.912-13.765,53.608-1.647C144.818,25.77,148.809,35.743,151.34,46.527z"/>
</g>
</svg>
