<?xml version="1.0" encoding="utf-8"?>
<!-- Generator: Adobe Illustrator 17.0.0, SVG Export Plug-In . SVG Version: 6.00 Build 0)  -->
<!DOCTYPE svg PUBLIC "-//W3C//DTD SVG 1.1//EN" "http://www.w3.org/Graphics/SVG/1.1/DTD/svg11.dtd">
<svg version="1.1" id="Layer_1" xmlns="http://www.w3.org/2000/svg" xmlns:xlink="http://www.w3.org/1999/xlink" x="0px" y="0px"
	 width="155.862px" height="171.724px" viewBox="0 0 155.862 171.724" enable-background="new 0 0 155.862 171.724"
	 xml:space="preserve">
<g>
	<g id="XMLID_2_">
		<g>
			<path fill="#E0C8EA" d="M16.314,120.817c1.55,2.58,2.95,2.55,5.11,0.46c12.24-11.9,24.48-23.79,36.71-35.69
				c2.25-2.19,2.24-2.38,0.04-4.54c-9.29-9.1-18.58-18.19-27.87-27.28c-4.33-4.24-8.66-8.47-13.02-12.67
				c-0.43-0.41-1.35-0.89-1.67-0.71c-0.52,0.29-0.88,1.07-1.04,1.71c-0.18,0.69-0.07,1.45-0.07,2.18c0,11.7,0,23.39,0,35.08
				c0,11.91-0.08,23.83,0.08,35.74C14.604,117.027,15.314,119.137,16.314,120.817z M128.674,123.787c0.84,0,1.68-0.19,3.14-0.37
				c-0.9-1.15-1.31-1.85-1.87-2.39c-10.84-10.27-21.72-20.49-32.53-30.8c-1.53-1.46-2.52-1.2-3.86,0.16
				c-3.31,3.37-6.71,6.66-10.11,9.96c-2.42,2.34-3.17,2.32-5.53,0.01c-3.64-3.57-7.28-7.14-10.92-10.7
				c-1.94-1.89-2.19-1.9-4.13,0.01c-10.55,10.45-21.11,20.9-31.63,31.38c-0.57,0.57-0.83,1.43-1.23,2.16
				c0.83,0.2,1.65,0.57,2.48,0.57C64.544,123.807,96.614,123.807,128.674,123.787z M140.114,121.817c1.63,1.61,2.86,1.42,4.37,0.13
				c2.2-1.89,2.86-4.39,2.87-7.09c0.03-11.84,0.01-23.67,0.01-35.5c0-11.62,0.01-23.23,0-34.85c0-0.8,0.09-1.64-0.1-2.4
				c-0.2-0.81-0.69-1.56-1.05-2.34c-0.73,0.4-1.59,0.67-2.16,1.23c-7.05,6.84-14.05,13.73-21.06,20.61
				c-6.65,6.51-13.3,13.02-19.95,19.54c-2.09,2.04-2.08,2.33,0.03,4.4c1.63,1.6,3.28,3.19,4.92,4.79
				C118.714,100.817,129.464,111.267,140.114,121.817z M77.374,90.727c2.89,2.83,4.13,2.85,7.07-0.05
				c4.47-4.4,8.89-8.87,13.36-13.28c13.35-13.18,26.73-26.34,40.07-39.53c0.68-0.67,1.19-1.5,2.15-2.74c-39.77,0-78.85,0-117.92,0
				c-0.14,0.19-0.28,0.39-0.42,0.59c0.67,0.81,1.27,1.68,2.01,2.42C41.584,55.677,59.484,73.197,77.374,90.727z M154.004,41.527
				c0.03,25.15,0.04,50.3,0,75.45c-0.01,6.84-4.32,11.87-11.27,13.26c-2.02,0.41-4.11,0.66-6.18,0.66
				c-37.75,0.04-75.5,0.07-113.25-0.01c-6.82-0.01-12.17-2.84-14.75-9.37c-0.68-1.73-1.03-3.69-1.04-5.54
				c-0.06-24.42-0.07-48.84-0.03-73.26c0.02-8.82,6.42-14.96,15.47-14.96c19.28-0.01,38.57-0.01,57.85-0.01
				c19.44,0,38.88,0,58.31,0.01c6.59,0,12.05,3.65,14.3,9.69C153.884,38.707,153.994,40.157,154.004,41.527z"/>
		</g>
		<g>
		</g>
	</g>
</g>
</svg>
