<?xml version="1.0" encoding="utf-8"?>
<!-- Generator: Adobe Illustrator 17.0.0, SVG Export Plug-In . SVG Version: 6.00 Build 0)  -->
<!DOCTYPE svg PUBLIC "-//W3C//DTD SVG 1.1//EN" "http://www.w3.org/Graphics/SVG/1.1/DTD/svg11.dtd">
<svg version="1.1" id="Layer_1" xmlns="http://www.w3.org/2000/svg" xmlns:xlink="http://www.w3.org/1999/xlink" x="0px" y="0px"
	 width="155.862px" height="171.724px" viewBox="0 0 155.862 171.724" enable-background="new 0 0 155.862 171.724"
	 xml:space="preserve">
<g>
	<g id="XMLID_1_">
		<g>
			<path fill="#FEFEFE" d="M80.014,137.557c-7.42,0-14.84,0-22.26,0c7.41,0,14.84,0,22.26-0.01c7.56,0,15.12,0.01,22.68,0.01
				C95.134,137.557,87.574,137.547,80.014,137.557z"/>
			<path fill="#E0C8EA" d="M103.574,65.357c1.52,0,3.3,0.3,3.32-2.11c0.06-8.16,0.52-16.37-1.33-24.39
				c-2.67-11.59-14.39-20.23-27.24-19.43c-10.64,0.66-21.11,8.96-23.44,20.38c-1.59,7.76-0.42,15.75-0.52,23.63
				c-0.03,2.42,2.03,1.9,3.47,1.91c7.62,0.04,15.25,0.02,22.87,0.02C88.324,65.367,95.954,65.377,103.574,65.357z M27.974,129.967
				c0.01,5.87,1.69,7.57,7.53,7.58c7.42,0.01,14.83,0.01,22.25,0.01s14.84,0,22.26,0c7.56-0.01,15.12,0,22.68,0
				s15.12-0.01,22.68-0.02c5.08-0.01,7.76-2.34,7.81-7.4c0.14-14.41,0.2-28.83-0.03-43.24c-0.09-6.17-2.35-7.98-8.42-7.98
				c-29.67-0.01-59.35-0.01-89.03,0c-6.08,0-7.72,1.67-7.73,7.8C27.964,101.137,27.954,115.547,27.974,129.967z M143.534,75.237
				c1.71,2.7,2.51,5.59,2.5,8.81c-0.05,15.98,0.01,31.96-0.03,47.94c-0.02,10.46-8.62,19.05-19.16,19.09
				c-15.56,0.06-31.11,0.02-46.67,0.02c-15.27,0-30.55,0.02-45.82-0.01c-11.29-0.02-19.89-8.54-19.92-19.76
				c-0.03-15.41-0.03-30.83,0-46.24c0.03-11.2,8.65-19.65,19.96-19.73c7.1-0.05,6.18,0.88,6.37-6.32c0.21-8.01-0.66-16.02,1.42-24
				c5.24-20.01,26.67-31.82,43.7-28.46c17.81,3.51,30.01,14.39,33.31,32.09c1.25,6.7,0.41,13.8,0.5,20.72
				c0.08,6.6-0.68,6.02,5.85,5.96C133.444,65.267,139.354,68.617,143.534,75.237z"/>
		</g>
		<g>
		</g>
	</g>
</g>
</svg>
