<?xml version="1.0" encoding="utf-8"?>
<!-- Generator: Adobe Illustrator 17.0.0, SVG Export Plug-In . SVG Version: 6.00 Build 0)  -->
<!DOCTYPE svg PUBLIC "-//W3C//DTD SVG 1.1//EN" "http://www.w3.org/Graphics/SVG/1.1/DTD/svg11.dtd">
<svg version="1.1" id="Layer_1" xmlns="http://www.w3.org/2000/svg" xmlns:xlink="http://www.w3.org/1999/xlink" x="0px" y="0px"
	 width="155.862px" height="171.724px" viewBox="0 0 155.862 171.724" enable-background="new 0 0 155.862 171.724"
	 xml:space="preserve">
<g>
	<g id="XMLID_2_">
		<g>
			<path fill="#967D9F" d="M48.384,63.897c-0.04,16.45,13.19,29.62,29.73,29.63c16.44,0,29.64-13.08,29.66-29.39
				c0.02-16.51-13.14-29.81-29.56-29.85C61.774,34.247,48.414,47.507,48.384,63.897z M135.344,46.637
				c6.11,19.14,2.32,36.85-9.48,53.04c-6.51,8.93-12.69,18.11-19,27.19c-8.69,12.48-17.36,24.97-26.05,37.45
				c-0.41,0.59-0.93,1.11-1.66,1.98c-5.37-7.71-10.52-15.12-15.69-22.51c-11-15.7-22.06-31.35-33.01-47.08
				c-20.63-29.63-8.34-72.14,24.91-86.32C88.144-3.593,124.504,12.697,135.344,46.637z"/>
		</g>
		<g>
		</g>
	</g>
</g>
</svg>
