<?xml version="1.0" encoding="utf-8"?>
<!-- Generator: Adobe Illustrator 17.0.0, SVG Export Plug-In . SVG Version: 6.00 Build 0)  -->
<!DOCTYPE svg PUBLIC "-//W3C//DTD SVG 1.1//EN" "http://www.w3.org/Graphics/SVG/1.1/DTD/svg11.dtd">
<svg version="1.1" id="Layer_1" xmlns="http://www.w3.org/2000/svg" xmlns:xlink="http://www.w3.org/1999/xlink" x="0px" y="0px"
	 width="155.862px" height="171.724px" viewBox="0 0 155.862 171.724" enable-background="new 0 0 155.862 171.724"
	 xml:space="preserve">
<g>
	<g id="XMLID_1_">
		<g>
			<path fill="#540174" d="M144.464,141.847c0.1,4.33,0.09,8.67,0,13c-0.11,4.86-2.42,7.73-6.12,7.45
				c-4.48-0.34-5.55-3.34-5.61-7.34c-0.09-6.47,0.22-13.07-0.91-19.39c-2.03-11.35-11.85-19.38-23.37-19.5
				c-21.33-0.2-42.66-0.22-63.99,0.01c-12.84,0.14-23.09,10.08-24.01,22.9c-0.4,5.47-0.18,10.99-0.26,16.48
				c-0.05,4.05-1.6,6.96-6.1,6.8c-4.26-0.14-5.51-3.06-5.47-6.87c0.05-5.33-0.1-10.66,0.1-15.99c0.7-19.11,16.33-34.64,35.47-35.07
				c10.83-0.24,21.66-0.04,32.5-0.04c0-0.01,0-0.01,0-0.02c9.83,0,19.66-0.02,29.49,0.01
				C128.134,104.337,143.994,119.907,144.464,141.847z"/>
			<path fill="#540174" d="M76.414,73.267c13.7,0.02,25.15-11.28,25.29-24.94c0.14-14.01-11.14-25.4-25.19-25.44
				c-13.95-0.04-25.08,10.97-25.14,24.85C51.324,61.977,62.364,73.237,76.414,73.267z M113.364,47.967
				c0.16,20.08-16.68,36.99-36.85,37c-20.4,0.02-36.73-16.36-36.79-36.88c-0.06-20.53,16.14-36.82,36.67-36.87
				C96.744,11.167,113.204,27.527,113.364,47.967z"/>
		</g>
		<g>
		</g>
	</g>
</g>
</svg>
